<svg width="404" height="404" viewBox="0 0 404 404" fill="none" xmlns="http://www.w3.org/2000/svg">
<path fill-rule="evenodd" clip-rule="evenodd" d="M81.0006 199.052L101.789 168.317L109.958 132.127C111.16 127.323 113.643 123.392 117.41 120.335C121.177 117.278 125.517 115.749 130.431 115.749H137.346L151.526 94.7856H130.431C120.604 94.7856 111.869 97.8155 104.226 103.875C96.5833 109.935 91.7246 117.769 89.6501 127.377L73.2349 199.052H81.0006ZM304.565 199.052L301.739 186.528C308.063 175.721 312.682 163.866 315.258 151.351L326.182 199.052L326.309 199.603H304.69L304.565 199.052Z" fill="#66A8F8"/>
<path fill-rule="evenodd" clip-rule="evenodd" d="M179.757 84.304C181.695 80.6609 182.718 76.5968 182.718 72.457C182.718 71.1951 182.761 69.9376 182.848 68.6864C183.234 63.1023 184.472 57.6456 186.491 52.4905C187.308 50.4034 188.253 48.3658 189.321 46.3892C190.19 44.7801 191.141 43.2116 192.171 41.6897C193.446 39.8054 194.841 37.9926 196.353 36.2633C197.26 35.2257 198.208 34.2181 199.198 33.2431C209.75 22.8428 224.063 17.0001 238.987 17C249.513 16.999 259.828 19.908 268.76 25.3958C277.692 30.8836 284.884 38.7309 289.518 48.0455L290.576 50.2749H306.512C308.418 50.2748 310.294 50.7519 311.962 51.6616C313.63 52.5713 315.035 53.884 316.048 55.4759C317.06 57.0678 317.646 58.8871 317.75 60.7631C317.854 62.6392 317.471 64.5113 316.64 66.2022L315.875 67.5221L298.408 93.3322C297.069 95.3165 296.415 97.6736 296.541 100.054L296.698 101.473L297.506 105.843L298.285 110.058C301.36 126.72 300.067 143.022 295.283 157.928C290.261 173.574 281.394 187.681 269.696 199.052H102.313L157.846 116.952L178.361 86.6216C178.869 85.8714 179.335 85.0977 179.757 84.304ZM211.535 121.697C212.887 123.03 213.986 124.565 214.802 126.231C215.896 128.465 216.48 130.933 216.48 133.461C216.479 140.471 213.216 146.627 206.329 152.583C199.227 158.728 188.974 163.996 176.966 168.621C165.735 172.958 153.727 176.463 142.495 179.646C142.495 179.646 146.214 173.825 151.246 166.034C151.953 164.94 152.685 163.808 153.437 162.647C154.146 161.553 154.871 160.433 155.609 159.298C155.64 159.249 155.672 159.2 155.704 159.151C164.8 145.145 175.612 128.755 177.715 126.682L178.006 126.395L178.173 126.231C179.642 124.783 180.89 123.559 182.145 122.518C183.865 121.089 185.6 120.002 187.939 119.141C190.825 118.081 193.812 117.383 196.388 117.051C196.394 117.05 196.4 117.049 196.405 117.048C197.57 116.899 198.65 116.823 199.599 116.823C199.843 116.824 200.088 116.829 200.331 116.839C204.542 117.019 208.542 118.748 211.535 121.697ZM238.987 61.366C236.003 61.366 233.14 62.5346 231.03 64.6147C228.919 66.6947 227.733 69.5159 227.733 72.4575C227.733 75.3992 228.919 78.2203 231.03 80.3004C233.14 82.3805 236.003 83.549 238.987 83.549C241.972 83.549 244.835 82.3805 246.945 80.3004C249.056 78.2203 250.241 75.3992 250.241 72.4575C250.241 69.5159 249.056 66.6947 246.945 64.6147C244.835 62.5346 241.972 61.366 238.987 61.366Z" fill="#E8EC67"/>
<path d="M346.453 212.292C352.24 212.292 357.18 214.339 361.275 218.434C365.369 222.528 367.416 227.469 367.416 233.256C367.416 239.042 365.369 243.983 361.275 248.077C357.18 252.172 352.24 254.219 346.453 254.219H343.996L325.162 362.64C324.288 367.662 321.886 371.811 317.956 375.087C314.025 378.362 309.548 380 304.526 380H94.8906C89.8681 380 85.3915 378.362 81.4608 375.087C77.5302 371.811 75.1281 367.662 74.2546 362.64L55.4202 254.219H52.9635C47.1767 254.219 42.2361 252.172 38.1417 248.077C34.0472 243.983 32 239.042 32 233.256C32 227.469 34.0472 222.528 38.1417 218.434C42.2361 214.339 47.1767 212.292 52.9635 212.292H346.453ZM111.432 343.314C114.271 343.096 116.646 341.867 118.556 339.629C120.467 337.391 121.313 334.852 121.095 332.013L115.854 263.882C115.636 261.043 114.407 258.668 112.169 256.758C109.931 254.847 107.392 254.001 104.553 254.219C101.715 254.437 99.3399 255.666 97.4291 257.904C95.5184 260.142 94.6722 262.681 94.8906 265.52L100.131 333.651C100.35 336.381 101.469 338.674 103.489 340.53C105.509 342.386 107.884 343.314 110.613 343.314H111.432ZM178.745 332.832V264.701C178.745 261.862 177.707 259.405 175.633 257.331C173.558 255.256 171.102 254.219 168.263 254.219C165.424 254.219 162.967 255.256 160.893 257.331C158.818 259.405 157.781 261.862 157.781 264.701V332.832C157.781 335.671 158.818 338.128 160.893 340.202C162.967 342.277 165.424 343.314 168.263 343.314C171.102 343.314 173.558 342.277 175.633 340.202C177.707 338.128 178.745 335.671 178.745 332.832ZM241.635 332.832V264.701C241.635 261.862 240.598 259.405 238.523 257.331C236.449 255.256 233.992 254.219 231.154 254.219C228.315 254.219 225.858 255.256 223.784 257.331C221.709 259.405 220.672 261.862 220.672 264.701V332.832C220.672 335.671 221.709 338.128 223.784 340.202C225.858 342.277 228.315 343.314 231.154 343.314C233.992 343.314 236.449 342.277 238.523 340.202C240.598 338.128 241.635 335.671 241.635 332.832ZM299.285 333.651L304.526 265.52C304.744 262.681 303.898 260.142 301.987 257.904C300.077 255.666 297.702 254.437 294.863 254.219C292.024 254.001 289.486 254.847 287.247 256.758C285.009 258.668 283.781 261.043 283.562 263.882L278.321 332.013C278.103 334.852 278.949 337.391 280.86 339.629C282.771 341.867 285.145 343.096 287.984 343.314H288.803C291.533 343.314 293.908 342.386 295.928 340.53C297.947 338.674 299.067 336.381 299.285 333.651Z" fill="#66A8F8"/>
</svg>
